<?xml version="1.0" standalone="no"?>
<!DOCTYPE svg PUBLIC "-//W3C//DTD SVG 20010904//EN"
 "http://www.w3.org/TR/2001/REC-SVG-20010904/DTD/svg10.dtd">
<svg version="1.0" xmlns="http://www.w3.org/2000/svg"
 width="980.000000pt" height="1280.000000pt" viewBox="0 0 980.000000 1280.000000"
 preserveAspectRatio="xMidYMid meet">

<g transform="translate(0.000000,1280.000000) scale(0.100000,-0.100000)"
fill="#000000" stroke="none">
<path d="M4216 12223 c-3 -21 -6 -50 -6 -65 0 -19 -5 -28 -15 -28 -19 0 -65
-44 -65 -61 0 -6 16 -26 34 -44 l35 -33 -14 -213 c-7 -118 -17 -292 -21 -387
-5 -130 -10 -177 -21 -187 -8 -8 -47 -31 -86 -51 -118 -58 -157 -109 -157
-205 0 -84 60 -184 133 -224 52 -27 54 -51 7 -75 -80 -41 -103 -111 -55 -168
13 -16 38 -35 55 -42 16 -7 30 -15 30 -17 0 -6 -102 -370 -130 -463 -11 -36
-40 -137 -65 -225 -46 -163 -87 -304 -111 -385 -14 -45 -99 -346 -134 -470
-10 -36 -32 -114 -50 -175 -18 -60 -38 -130 -45 -155 -6 -25 -54 -189 -105
-365 -50 -176 -111 -387 -134 -470 l-43 -150 -229 -172 c-126 -94 -230 -170
-232 -168 -10 10 0 500 10 506 7 5 5 81 -6 255 -23 350 -25 361 -47 367 -23 6
-26 27 -4 27 18 0 18 -6 -1 88 -24 122 -16 112 -98 112 l-73 0 -27 153 c-39
213 -49 269 -102 542 -43 217 -47 257 -51 418 l-5 177 -69 0 -69 0 0 -159 c0
-176 10 -124 -139 -751 -16 -69 -46 -198 -67 -287 -21 -90 -41 -163 -45 -163
-4 0 -20 20 -36 45 -15 25 -31 45 -34 45 -6 0 -35 -143 -110 -545 -11 -60 -29
-155 -40 -209 -24 -123 -24 -126 1 -126 20 0 20 -5 18 -402 l-3 -402 -96 -36
c-52 -20 -118 -49 -145 -64 -73 -43 -174 -116 -174 -127 0 -5 534 -9 1430 -9
l1430 0 0 2790 c0 1573 -4 2790 -9 2790 -4 0 -11 -17 -15 -37z m-69 -2120 c-4
-21 -11 -83 -17 -138 -6 -55 -20 -179 -30 -275 -11 -96 -29 -256 -40 -355 -11
-99 -27 -234 -35 -300 -8 -66 -17 -147 -20 -180 -6 -64 -34 -306 -65 -575 -11
-91 -33 -292 -50 -447 l-31 -281 -122 -204 c-157 -261 -147 -248 -191 -251
-20 -2 -36 1 -36 6 0 5 59 108 132 230 92 155 135 236 140 267 7 41 42 320 53
415 2 22 13 110 24 195 11 85 29 227 40 315 38 301 61 490 81 645 11 85 29
232 40 325 12 94 30 235 40 315 11 80 22 170 25 200 14 126 15 130 42 130 24
0 25 -2 20 -37z m-2113 -2320 c-2 -27 2 -32 25 -35 l26 -3 3 -323 2 -323 -87
3 -88 3 -3 291 c-2 301 2 342 37 351 13 3 17 11 14 24 -9 34 4 51 39 47 30 -3
33 -6 32 -35z m341 17 c4 -12 1 -27 -5 -35 -9 -11 -4 -14 27 -17 l38 -3 0
-315 0 -315 -107 -3 -108 -3 0 302 c0 267 2 305 17 321 9 10 24 18 34 18 12 0
16 6 12 20 -9 36 4 50 46 50 31 0 41 -4 46 -20z m279 -17 c-2 -26 2 -33 20
-35 21 -3 21 -5 24 -315 l2 -313 -70 0 -70 0 0 296 c0 293 4 334 34 334 9 0
12 7 9 20 -8 31 4 52 29 48 19 -2 23 -9 22 -35z"/>
<path d="M5790 10620 c-338 -18 -693 -85 -939 -177 -197 -74 -377 -169 -435
-231 l-36 -37 0 -814 0 -814 33 6 c30 6 123 26 357 77 52 12 138 30 190 40 52
11 194 40 315 65 121 25 297 61 390 80 94 19 235 48 315 65 80 17 177 37 215
44 215 41 1301 260 1304 263 9 7 -101 268 -174 413 -67 135 -180 328 -229 393
-256 337 -484 515 -766 599 -53 15 -344 42 -395 36 -5 -1 -71 -4 -145 -8z"/>
<path d="M8445 9249 c-361 -19 -545 -51 -1995 -354 -96 -20 -272 -56 -390 -81
-118 -24 -289 -60 -380 -79 -174 -36 -544 -114 -695 -146 -49 -11 -124 -26
-165 -35 -41 -8 -104 -21 -140 -29 -36 -8 -110 -24 -165 -35 -55 -12 -108 -24
-117 -26 -17 -5 -18 -33 -18 -414 l0 -410 63 39 c91 57 114 84 140 165 20 64
22 90 21 258 l-2 187 44 15 c24 8 44 11 44 5 0 -5 5 -9 10 -9 6 0 10 6 10 13
0 6 40 26 89 44 l90 31 -1 -46 c-1 -57 26 -162 55 -220 12 -23 39 -59 59 -79
l37 -36 11 29 c14 35 7 101 -20 187 -19 60 -25 141 -14 183 6 22 50 41 162 69
60 15 64 15 90 -4 73 -52 132 -141 132 -198 0 -30 3 -33 33 -35 127 -5 196 47
244 188 20 58 73 152 101 177 12 11 72 30 148 46 242 53 509 109 549 116 l40
7 -41 -29 c-23 -15 -56 -41 -75 -56 l-34 -28 60 7 c33 4 137 7 230 7 140 -1
182 -4 240 -21 38 -11 73 -18 77 -16 11 7 10 72 -2 94 -5 10 -25 23 -42 29
-43 13 -175 31 -241 32 l-52 1 50 14 c28 7 133 27 235 44 102 16 211 35 244
40 32 5 63 7 67 4 12 -7 11 -126 0 -156 -5 -13 -30 -48 -55 -78 -53 -62 -58
-94 -25 -165 23 -49 98 -138 99 -117 0 26 83 184 121 232 21 27 56 58 77 69
59 30 134 103 176 171 l38 62 -21 29 c-26 35 -34 32 129 59 183 31 624 106
860 146 113 20 256 38 318 41 132 7 152 -2 152 -69 0 -83 -76 -170 -251 -284
-105 -70 -356 -198 -504 -259 -205 -84 -585 -212 -819 -276 -257 -70 -261 -71
-264 -96 -2 -13 -1 -23 3 -23 3 0 61 16 128 36 67 20 131 39 142 41 130 32
520 165 787 269 122 47 419 192 505 246 95 59 215 151 247 189 98 116 85 223
-32 264 -90 31 -300 40 -597 24z"/>
<path d="M6650 8525 c-30 -13 -103 -40 -162 -60 -88 -30 -108 -40 -108 -56 0
-31 23 -32 112 -4 45 14 91 28 102 31 17 6 18 2 11 -52 -7 -60 5 -111 28 -126
22 -14 64 -8 89 12 33 26 58 88 65 164 4 53 2 65 -17 89 -26 33 -47 33 -120 2z"/>
<path d="M7080 8389 c-41 -17 -54 -49 -19 -49 17 0 20 -4 15 -22 -3 -13 -9
-59 -12 -103 -6 -69 -4 -84 10 -98 45 -44 97 -3 116 90 15 69 2 123 -40 165
-31 31 -34 31 -70 17z"/>
<path d="M6856 7724 c-22 -13 -26 -18 -15 -25 8 -5 21 -9 29 -9 9 0 47 -20 85
-45 75 -48 125 -58 161 -30 19 14 18 15 -6 35 -43 34 -165 90 -196 90 -16 -1
-42 -8 -58 -16z"/>
<path d="M7777 7613 c-8 -10 -28 -55 -44 -101 -25 -73 -30 -82 -48 -77 -86 28
-105 29 -133 9 -36 -26 -66 -87 -142 -284 -15 -38 -182 -452 -304 -753 -20
-48 -36 -96 -36 -106 0 -21 55 -77 63 -64 3 5 12 27 20 49 8 21 48 122 90 224
41 102 109 268 150 370 183 451 191 468 223 480 29 11 74 13 74 3 0 -5 -63
-205 -145 -463 -14 -41 -50 -156 -81 -255 -31 -99 -59 -186 -61 -192 -4 -9 8
-13 40 -13 39 0 46 3 55 28 6 15 60 203 121 417 168 591 188 657 202 667 8 4
27 6 42 3 25 -4 28 -3 21 18 -10 35 -35 57 -64 57 -15 0 -34 -8 -43 -17z"/>
<path d="M7920 7378 c-11 -24 -20 -49 -20 -55 0 -7 -47 -205 -105 -439 -58
-234 -105 -434 -105 -445 0 -14 7 -19 25 -19 14 0 25 2 25 5 0 2 16 69 36 147
20 79 40 159 44 178 16 74 141 556 150 578 6 14 18 22 35 22 18 0 25 5 25 18
0 26 -32 52 -64 52 -22 0 -30 -8 -46 -42z"/>
<path d="M6660 7395 c-114 -18 -193 -49 -241 -94 -34 -33 -39 -43 -39 -83 0
-56 22 -86 93 -127 86 -49 158 -137 190 -232 11 -34 24 -49 56 -67 36 -21 69
-23 57 -4 -2 4 0 42 4 84 15 129 67 205 196 282 68 40 97 84 92 139 -3 28 -10
35 -58 58 -95 46 -228 63 -350 44z"/>
<path d="M8043 6898 c-6 -7 -38 -114 -72 -238 -34 -124 -71 -256 -82 -294 -21
-69 -18 -85 16 -86 6 0 37 96 69 213 103 375 94 351 138 342 23 -5 28 -3 28
12 0 32 -29 63 -59 63 -16 0 -33 -6 -38 -12z"/>
<path d="M6486 6753 c-34 -99 -12 -187 50 -199 51 -9 92 5 136 47 41 39 42 40
22 59 -25 26 -177 140 -186 140 -3 0 -13 -21 -22 -47z"/>
<path d="M5339 6677 c-38 -25 -54 -62 -94 -207 -30 -110 -87 -243 -146 -342
-45 -77 -162 -206 -216 -239 -19 -12 -31 -25 -26 -29 4 -3 68 -30 141 -59 306
-120 665 -290 859 -408 259 -156 401 -336 659 -838 164 -320 387 -839 510
-1189 l27 -78 -17 -117 c-20 -140 -76 -368 -146 -597 -75 -244 -150 -511 -150
-531 -1 -63 -22 -41 -346 367 -690 867 -764 960 -772 960 -11 0 -108 -153
-177 -280 -32 -58 -81 -148 -110 -200 -29 -52 -72 -131 -95 -175 -23 -44 -50
-93 -60 -110 -10 -16 -32 -57 -50 -90 -17 -33 -69 -127 -115 -210 -45 -82
-124 -226 -175 -320 -51 -93 -145 -264 -208 -380 -63 -115 -146 -267 -184
-337 l-69 -128 2 -115 c1 -64 6 -118 10 -121 4 -2 14 8 22 23 7 16 99 177 204
358 104 182 297 517 428 745 131 228 257 447 280 485 23 39 101 175 175 303
73 128 136 231 140 230 7 -3 112 -131 425 -519 761 -945 741 -922 850 -994
130 -86 267 -140 419 -166 163 -28 339 27 434 135 66 75 124 206 136 306 l7
55 -22 -35 c-153 -246 -270 -350 -392 -350 -152 0 -314 227 -396 555 -58 234
-62 502 -11 770 34 183 88 643 109 945 6 74 17 232 25 350 9 118 23 359 32
535 8 176 20 324 24 329 5 5 50 2 107 -8 140 -23 273 -22 321 4 48 25 89 63
134 125 34 47 98 157 98 168 0 3 -42 -36 -92 -87 -123 -122 -161 -141 -288
-140 -94 0 -204 22 -310 62 -36 13 -867 559 -987 649 -37 27 -42 56 -16 86 17
18 17 20 -6 38 -32 26 -45 24 -75 -12 -34 -40 -34 -88 -1 -127 14 -17 65 -56
113 -88 255 -168 339 -226 461 -317 227 -170 320 -269 347 -371 46 -170 45
-929 -1 -1370 -8 -76 -16 -141 -18 -142 -2 -2 -34 81 -71 184 -90 249 -207
546 -276 697 -10 22 -33 74 -51 115 -59 133 -214 432 -283 544 -170 276 -271
377 -560 555 -159 98 -229 137 -421 236 -93 49 -172 89 -174 91 -2 2 14 23 35
47 22 25 67 96 102 159 111 202 173 261 288 274 56 7 216 -23 297 -55 222 -87
315 -105 402 -81 24 7 54 23 66 36 21 23 21 24 3 30 -233 85 -759 301 -909
375 -67 32 -126 59 -132 59 -5 0 -25 -10 -44 -23z"/>
<path d="M1550 6231 l0 -358 -35 -24 c-19 -13 -35 -27 -35 -31 0 -4 14 -16 30
-28 l30 -21 0 -585 0 -584 -50 0 -50 0 0 -95 0 -95 1400 0 1401 0 -3 128 -3
127 -125 2 c-69 1 -131 2 -137 3 -10 0 -13 32 -13 125 0 118 -1 125 -20 125
-20 0 -20 7 -20 398 0 385 1 400 20 422 11 13 20 31 20 42 0 10 7 18 15 18 10
0 15 10 15 30 0 27 -3 30 -30 30 l-30 0 0 133 c0 88 5 150 15 183 26 89 121
197 238 271 l57 36 0 53 0 54 -1345 0 -1345 0 0 -359z m2024 194 c74 -49 162
-144 191 -207 23 -49 25 -65 25 -205 l0 -152 -27 -3 c-22 -2 -29 -9 -31 -30
-2 -20 1 -28 11 -28 9 0 25 -19 36 -43 20 -42 21 -58 21 -440 0 -390 0 -397
-20 -397 -19 0 -20 -7 -20 -125 l0 -125 -245 0 -245 0 0 125 c0 104 -2 125
-15 125 -22 0 -22 795 0 824 8 11 15 28 15 38 0 10 7 18 15 18 10 0 15 10 15
30 0 25 -4 30 -25 30 l-25 0 0 155 c0 152 1 157 29 213 16 31 48 77 71 101 39
39 155 131 167 131 2 0 28 -16 57 -35z m-1558 -88 c27 -19 63 -56 79 -82 30
-48 30 -49 33 -220 3 -164 3 -172 -16 -177 -22 -6 -28 -58 -7 -58 7 0 16 -15
20 -32 13 -51 17 -848 6 -848 -6 0 -12 -51 -13 -125 l-3 -126 -158 -2 -157 -2
0 123 c0 100 -3 124 -15 128 -13 5 -15 60 -15 409 0 259 4 406 10 410 6 3 10
17 10 29 0 13 6 29 14 35 8 7 13 20 11 29 -2 9 -4 20 -4 25 -1 4 -8 7 -16 7
-22 0 -22 287 1 352 16 49 66 107 118 139 41 25 46 24 102 -14z m676 6 c60
-64 78 -144 78 -344 0 -97 -3 -138 -12 -141 -9 -3 -9 -24 2 -91 16 -104 9
-1085 -8 -1096 -5 -3 -51 -5 -101 -3 l-91 3 0 119 c0 68 -4 121 -10 125 -14 9
-13 787 1 840 20 75 22 97 9 105 -9 5 -11 52 -10 174 1 142 4 175 21 219 18
46 72 117 89 117 3 0 18 -12 32 -27z"/>
<path d="M1538 4238 l-3 -83 -57 -3 -58 -3 0 -500 0 -500 -184 -197 c-102
-108 -209 -224 -239 -257 l-56 -60 40 -3 c43 -3 40 4 40 -112 0 -27 0 -59 0
-70 -1 -17 -321 -389 -343 -398 -5 -2 -8 -8 -8 -13 0 -5 710 -9 1785 -9 l1785
0 0 200 0 200 -140 0 -140 0 0 124 c0 116 -1 125 -20 131 -20 6 -20 15 -20
404 0 330 2 401 14 410 8 7 17 23 20 36 4 14 13 25 21 25 10 0 15 10 15 30 0
27 -3 30 -30 30 l-30 0 0 145 c0 174 14 222 91 308 54 60 149 138 193 159 23
10 27 17 24 47 l-3 36 -1347 3 -1347 2 -3 -82z m2079 -80 c65 -50 116 -112
148 -180 23 -49 25 -64 25 -205 l0 -153 -30 0 c-25 0 -30 -4 -30 -25 0 -13 7
-28 15 -32 8 -5 24 -26 35 -48 19 -37 20 -59 20 -433 0 -385 0 -394 -20 -399
-19 -5 -20 -14 -20 -129 l0 -124 -242 2 -243 3 -3 128 c-2 109 -5 128 -17 123
-23 -8 -22 805 0 824 8 7 15 21 15 31 0 11 7 19 15 19 10 0 15 10 15 30 0 25
-4 30 -25 30 l-25 0 0 158 c0 144 2 161 24 208 28 60 109 148 186 203 63 44
57 45 157 -31z m-1569 -258 c38 -39 85 -99 103 -133 33 -61 34 -65 34 -182 l0
-120 -33 -5 c-18 -3 -33 -8 -32 -12 0 -5 0 -15 0 -23 0 -8 9 -15 20 -15 11 0
20 -7 20 -15 0 -8 9 -20 20 -27 19 -12 20 -24 20 -316 l0 -302 -227 2 -228 3
0 295 0 295 24 33 c14 17 33 32 43 32 12 0 18 8 18 24 0 21 -5 25 -37 28 l-38
3 1 120 c1 110 3 124 28 173 25 50 169 212 187 212 4 0 39 -32 77 -70z m651
23 c86 -104 126 -238 119 -393 -3 -63 -4 -65 -30 -68 -22 -3 -28 -9 -28 -28 0
-13 6 -24 13 -24 6 0 20 -14 30 -31 15 -27 17 -63 17 -330 l0 -299 -160 0
-160 0 0 304 c0 258 2 305 15 316 8 7 15 19 15 26 0 8 7 14 15 14 9 0 15 9 15
25 0 20 -5 25 -25 25 l-25 0 0 120 c0 153 24 227 113 343 16 20 32 37 37 37 5
0 22 -17 39 -37z"/>
<path d="M730 1405 l0 -535 1758 2 1757 3 0 530 0 530 -1757 3 -1758 2 0 -535z"/>
</g>
</svg>
